<?xml version="1.0" encoding="UTF-8" standalone="no"?>
<svg width="15px" height="16px" viewBox="0 0 15 16" version="1.1" xmlns="http://www.w3.org/2000/svg" xmlns:xlink="http://www.w3.org/1999/xlink">
    <!-- Generator: Sketch 40.1 (33804) - http://www.bohemiancoding.com/sketch -->
    <title>Page 1</title>
    <desc>Created with Sketch.</desc>
    <defs>
        <polygon id="path-1" points="0 17.8812246 17 17.8812246 17 0.499744318 0 0.499744318"></polygon>
    </defs>
    <g id="Symbols" stroke="none" stroke-width="1" fill="none" fill-rule="evenodd">
        <g id="settings-manage_32">
            <g id="Page-1" transform="translate(0.000000, -1.000000)">
                <mask id="mask-2" fill="white">
                    <use xlink:href="#path-1"></use>
                </mask>
                <g id="Clip-2"></g>
                <path d="M7.57469286,11.5770881 C8.88547857,11.5783665 9.94105,10.5319886 9.94169286,9.22928977 C9.94233571,7.93234375 8.89255,6.88021307 7.59462143,6.87829545 C6.27290714,6.87637784 5.21862143,7.91508523 5.21540714,9.22161932 C5.21283571,10.5249574 6.26519286,11.5758097 7.57469286,11.5770881 M6.16812143,2.49974432 L8.98897857,2.49974432 C9.00569286,2.50677557 9.02176429,2.51380682 9.03847857,2.52019886 C9.16640714,2.57005682 9.25126429,2.66082386 9.27119286,2.79569602 C9.35412143,3.36139205 9.43255,3.92708807 9.51162143,4.49278409 C9.51869286,4.54455966 9.53605,4.57588068 9.58812143,4.59761364 C9.95133571,4.75166193 10.2901214,4.94853693 10.6038357,5.18568182 C10.6501214,5.22083807 10.6854786,5.22275568 10.7381929,5.20102273 C11.2621214,4.98816761 11.7873357,4.77786932 12.31255,4.56757102 C12.5111929,4.48830966 12.6693357,4.54136364 12.7766929,4.72481534 C13.2189786,5.48546875 13.6606214,6.24612216 14.1016214,7.00741477 C14.2057643,7.18639205 14.17105,7.35194602 14.0071214,7.47978693 C13.5558357,7.83134943 13.1051929,8.18291193 12.6532643,8.53191761 C12.6146929,8.56196023 12.6044071,8.58816761 12.6108357,8.63674716 C12.6622643,9.02857955 12.6629071,9.42169034 12.6114786,9.81416193 C12.6044071,9.8665767 12.6159786,9.8940625 12.6558357,9.92474432 C13.0974786,10.2667187 13.5378357,10.6099716 13.97755,10.9538636 C14.18005,11.1123864 14.20705,11.2600426 14.0791214,11.4805682 C13.6471214,12.2252415 13.2144786,12.9699148 12.7824786,13.7145881 C12.6654786,13.9159375 12.5124786,13.9689915 12.2958357,13.8820597 C11.7731929,13.6717614 11.2511929,13.4608239 10.7279071,13.2524432 C10.6976929,13.2402983 10.6462643,13.2396591 10.6224786,13.2569176 C10.2959071,13.5004545 9.94555,13.7024432 9.57269286,13.8667187 C9.54633571,13.8782244 9.51805,13.9165767 9.51355,13.9453409 C9.43512143,14.4797159 9.35605,15.0140909 9.28790714,15.5497443 C9.26283571,15.7466193 9.19019286,15.8942756 8.98897857,15.9556392 L6.16812143,15.9556392 C6.02990714,15.9070597 5.92190714,15.8271591 5.89233571,15.67375 C5.87947857,15.6066335 5.87305,15.5388778 5.86340714,15.4711222 C5.79140714,14.9680682 5.71812143,14.4650142 5.64869286,13.961321 C5.64097857,13.9069886 5.62169286,13.8795028 5.57155,13.8577699 C5.20705,13.7011648 4.86633571,13.5030114 4.55069286,13.2633097 C4.50440714,13.2281534 4.46840714,13.2345455 4.42147857,13.2537216 C3.89755,13.4659375 3.37233571,13.6775142 2.84776429,13.8878125 C2.64912143,13.9677131 2.48969286,13.9127415 2.38362143,13.729929 C1.94326429,12.9718324 1.50355,12.2130966 1.06383571,11.455 C0.955192857,11.2683523 0.984764286,11.1079119 1.15319286,10.9755966 C1.60126429,10.6253125 2.04997857,10.2756676 2.49869286,9.92666193 C2.53726429,9.89661932 2.55397857,9.87105114 2.54690714,9.81671875 C2.49419286,9.42232955 2.49483571,9.02666193 2.54690714,8.63163352 C2.55333571,8.58497159 2.54176429,8.56132102 2.50640714,8.53383523 C2.05897857,8.18674716 1.61283571,7.83838068 1.16605,7.49065341 C0.98605,7.35002841 0.953264286,7.18958807 1.06705,6.99399148 C1.50290714,6.24228693 1.93876429,5.49058239 2.37526429,4.73951705 C2.49290714,4.53752841 2.64462143,4.48639205 2.86255,4.57396307 C3.38712143,4.78490057 3.91169286,4.99647727 4.43755,5.20485795 C4.46390714,5.21572443 4.50826429,5.21700284 4.52883571,5.20166193 C4.85862143,4.95365057 5.21412143,4.75038352 5.59212143,4.58482955 C5.61526429,4.57524148 5.63969286,4.54200284 5.64355,4.51707386 C5.72069286,3.98525568 5.79912143,3.4540767 5.86790714,2.92098011 C5.89297857,2.72090909 5.95726429,2.56238636 6.16812143,2.49974432" id="Fill-1" stroke="#F9F9F9" mask="url(#mask-2)"></path>
            </g>
        </g>
    </g>
</svg>