<?xml version="1.0" encoding="UTF-8" standalone="no"?>
<svg width="63px" height="68px" viewBox="0 0 63 68" version="1.1" xmlns="http://www.w3.org/2000/svg" xmlns:xlink="http://www.w3.org/1999/xlink">
    <!-- Generator: Sketch 40.1 (33804) - http://www.bohemiancoding.com/sketch -->
    <title>Page 1</title>
    <desc>Created with Sketch.</desc>
    <defs></defs>
    <g id="Welcome" stroke="none" stroke-width="1" fill="none" fill-rule="evenodd">
        <g id="Home" transform="translate(-491.000000, -109.000000)">
            <g id="Page-1" transform="translate(492.000000, 110.000000)">
                <polygon id="Fill-1" fill="#F9F9F9" points="0 65.5624636 39.4792 65.5624636 39.4792 14.5432736 0 14.5432736"></polygon>
                <polygon id="Stroke-2" stroke="#C5C3C3" stroke-width="2" stroke-linecap="round" stroke-linejoin="round" points="0 65.5624636 39.4792 65.5624636 39.4792 14.5432736 0 14.5432736"></polygon>
                <path d="M6.8114125,24.2564901 L31.9007125,24.2564901" id="Stroke-4" stroke="#C5C3C3" stroke-width="2" stroke-linecap="round" stroke-linejoin="round"></path>
                <path d="M6.8114125,31.6634529 L29.0992875,31.6634529" id="Stroke-5" stroke="#C5C3C3" stroke-width="2" stroke-linecap="round" stroke-linejoin="round"></path>
                <path d="M6.8114125,39.0704157 L17.5855375,39.0704157" id="Stroke-6" stroke="#C5C3C3" stroke-width="2" stroke-linecap="round" stroke-linejoin="round"></path>
                <g id="Group-15" transform="translate(20.924099, 0.529406)">
                    <path d="M16.6162159,33.0145612 C7.5455159,33.0145612 0.191965901,25.7217843 0.191965901,16.7260488 C0.191965901,7.73031322 7.5455159,0.437536364 16.6162159,0.437536364 C25.6869159,0.437536364 33.0404659,7.73031322 33.0404659,16.7260488 C33.0404659,25.7217843 25.6869159,33.0145612 16.6162159,33.0145612 Z" id="Fill-7" fill="#FDFDFD"></path>
                    <path d="M33.0404659,16.7260488 C33.0404659,25.7217843 25.6869159,33.0145612 16.6162159,33.0145612 C7.5455159,33.0145612 0.191965901,25.7217843 0.191965901,16.7260488 C0.191965901,7.73031322 7.5455159,0.437536364 16.6162159,0.437536364 C25.6869159,0.437536364 33.0404659,7.73031322 33.0404659,16.7260488 L33.0404659,16.7260488 Z" id="Stroke-9" stroke="#56A3FC" stroke-width="2" stroke-linecap="round" stroke-linejoin="round"></path>
                    <path d="M8.8112659,20.1045917 C8.8112659,19.7401041 13.0324659,12.4609388 13.0324659,12.4609388 L19.9132659,20.6505669 L25.5115409,12.4609388" id="Stroke-11" stroke="#56A3FC" stroke-width="2" stroke-linecap="round" stroke-linejoin="round"></path>
                    <path d="M27.4296859,31.1340471 L39.5412359,43.1455017" id="Stroke-13" stroke="#56A3FC" stroke-width="2" stroke-linecap="round" stroke-linejoin="round"></path>
                </g>
            </g>
        </g>
    </g>
</svg>