<svg id="Layer_1" data-name="Layer 1" xmlns="http://www.w3.org/2000/svg" viewBox="0 0 841.89 595.28"><defs><style>.cls-1{fill:#231f20;}.cls-2{fill:#ef539e;}.cls-3{fill:#57c3b8;}.cls-4{fill:#fcd52a;}</style></defs><title>IBM_HealthCorps_stack_pos</title><path class="cls-1" d="M392.64,259.51h3.72V225.75h.11l13.4,33.76h3.5l13.35-33.76h.11v33.76h3.72V220.45h-5.47L411.63,254.7l-13.52-34.25h-5.47Zm-32.56-18.77h12.8c6.57,0,10.29,2.52,10.29,7.55,0,6.35-4.76,8-10.29,8h-12.8Zm-3.72,18.77h16.52c12.69,0,14-7.39,14-11.11a9.16,9.16,0,0,0-8.26-9.52v-.11a8.87,8.87,0,0,0,6.79-8.76c0-7.27-6-9.57-12.53-9.57H356.36Zm3.72-35.9h12.8c5.85,0,8.81,2.46,8.81,7.33,0,3.67-2.9,6.62-8.81,6.62h-12.8Zm-15.48,35.9h3.72V220.44H344.6Z"/><path class="cls-1" d="M473.51,313.88h7.77V299.05c0-5.75,1.81-8.1,6-8.1,3.67,0,5,2.3,5,6.95v16H500v-17.4c0-7-2.08-11.66-10.34-11.66a9.81,9.81,0,0,0-8.26,4.71h-.17V274.81h-7.77Zm-9.36-36.77h-7.77v8.48h-4.71v5.2h4.71v16.69c0,5.69,4.1,6.73,8.92,6.73a29.77,29.77,0,0,0,4.54-.27v-6.07a11,11,0,0,1-2.41.22c-2.63,0-3.28-.66-3.28-3.29v-14h5.69v-5.2h-5.69Zm-22.32,36.77h7.77V274.81h-7.77Zm-12-10.94c0,1.75-.22,6.51-6.29,6.51-2.52,0-4.76-.77-4.76-3.61s2.19-3.72,4.6-4.16,5.14-.49,6.46-1.64Zm-10.18-8.65c.27-3.06,2.14-4.27,5.15-4.27,2.74,0,5,.55,5,3.83.33,6.34-18.71-.55-18.83,12.31,0,5.8,4.22,8.48,9.63,8.48,3.5,0,7.06-.93,9.52-3.5a11.56,11.56,0,0,0,.55,2.74h7.88c-.71-1.15-1-3.72-1-6.29V292.87c0-6.78-6.79-8-12.42-8-6.34,0-12.86,2.24-13.3,9.47Zm-10.94,7.33c.6-8.7-4.1-16.8-13.73-16.8-8.59,0-14.44,6.46-14.44,14.94,0,8.76,5.53,14.88,14.44,14.88,6.4,0,11.05-2.79,13.24-9.52h-6.84c-.49,1.75-3,3.67-6.13,3.67-4.38,0-6.73-2.19-6.95-7.17Zm-20.41-4.92c.16-2.19,1.42-6,6.46-6,3.77,0,5.47,2.08,6.18,6ZM344.6,313.88h8.59V297H369v16.85h8.59V274.81H369v15H353.19v-15H344.6Z"/><path class="cls-1" d="M464.05,360c.27,7.5,6.73,10,13.3,10,6.4,0,12.91-2.41,12.91-9.85,0-5.25-4.43-6.9-9-7.93-4.38-1-8.81-1.42-8.81-4.21,0-2.35,2.57-2.63,4.32-2.63,2.79,0,5.09.82,5.31,3.83h7.39c-.6-7-6.35-9-12.48-9s-12.31,1.86-12.31,9.08c0,5,4.43,6.51,9,7.55,5.53,1.15,8.81,2,8.81,4.38,0,2.74-2.9,3.61-5.09,3.61-3,0-6-1.42-6-4.76ZM433.41,379.2h7.77V365.74h.11a10,10,0,0,0,8.48,4.27c8.32,0,12.42-7.06,12.42-14.61,0-8-4-15.21-12.86-15.21a9.36,9.36,0,0,0-8.43,4.38h-.11V341h-7.39Zm14.28-15c-5,0-6.78-4.38-6.78-9s1.64-9.14,6.73-9.14,6.79,4.6,6.79,9.14-1.64,9-6.73,9m-34.14,5.09h7.77V356.49c0-5,1.92-9.08,7.66-9.08a14.11,14.11,0,0,1,2.79.27v-7.22a5.76,5.76,0,0,0-1.7-.28,10,10,0,0,0-9,6h-.11V341h-7.39Zm-32.72-14.11c0,9,5.74,14.88,14.61,14.88s14.66-5.91,14.66-14.88-5.74-14.94-14.66-14.94-14.61,5.91-14.61,14.94m7.77,0c0-4.54,1.59-9.08,6.84-9.08s6.89,4.54,6.89,9.08-1.59,9-6.89,9-6.84-4.49-6.84-9M378.53,343.3c-1-9-8.32-14.06-16.85-14.06-12,0-19.2,9-19.2,20.63,0,11.27,7.17,20.3,19.2,20.3,9.63,0,16.31-6.18,17.18-16h-8.32c-.66,5.2-3.61,8.75-8.86,8.75-7.71,0-10.61-6.57-10.61-13.08,0-6.84,2.9-13.41,10.61-13.41a8.53,8.53,0,0,1,8.54,6.84Z"/><rect class="cls-2" x="322.8" y="400.47" width="69.71" height="10.04"/><rect class="cls-3" x="392.51" y="400.47" width="69.71" height="10.04"/><rect class="cls-4" x="462.22" y="400.47" width="69.71" height="10.04"/></svg>